# xmcd
#
# Track frame offsets:
#	150
#	18374
#	40524
#	58244
#	77448
#	95104
#	112513
#	132385
#	147500
#	167241
#	185648
#	202621
#	221095
#	253513
#
# Disc length: 3823 seconds
# Revision: 5
# Processed by: cddbd v1.5.2PL0 Copyright (c) Steve Scherf et al.
# Submitted via: dBpowerAMP V12.0
#
DISCID=be0eed0e
DTITLE=Various Artist - Fearless
DYEAR=2008
DGENRE=Country
TTITLE0=Taylor Swift - Fearless
TTITLE1=Taylor Swift - Fifteen
TTITLE2=Taylor Swift - Love Story
TTITLE3=Taylor Swift - Hey Stephen
TTITLE4=Taylor Swift - White Horse
TTITLE5=Taylor Swift - You Belong With Me
TTITLE6=Taylor Swift Featuring Colbie Caillat - Breathe
TTITLE7=Taylor Swift - Tell Me Why
TTITLE8=Taylor Swift - You're Not Sorry
TTITLE9=Taylor Swift - The Way I Loved You
TTITLE10=Taylor Swift - Forever and Always
TTITLE11=Taylor Swift - The Best Day
TTITLE12=Taylor Swift - Change
TTITLE13=DATA
EXTD=
EXTT0=
EXTT1=
EXTT2=
EXTT3=
EXTT4=
EXTT5=
EXTT6=
EXTT7=
EXTT8=
EXTT9=
EXTT10=
EXTT11=
EXTT12=
EXTT13=
PLAYORDER=
